<svg width="40" height="38" viewBox="0 0 40 38" fill="none" xmlns="http://www.w3.org/2000/svg">
<path d="M32.3887 16.566C27.0594 7.33446 21.3118 0.285202 19.9999 0.451617C18.6881 0.285202 12.9407 7.33446 7.61134 16.566C2.28164 25.7962 -0.669805 33.8152 0.129448 34.8687C0.424824 35.573 3.45851 36.3792 8.02293 36.935C9.38186 37.1006 10.8769 37.2361 12.4744 37.3549C15.8906 37.6105 18.8076 37.267 20.8243 34.7963C23.3016 31.7607 23.3072 26.731 20.55 22.5139C20.409 22.2984 20.0806 22.4415 20.1154 22.6967C20.2833 23.9272 20.3353 25.6165 19.9851 27.5397C19.5772 29.7797 17.9389 31.5344 15.7037 31.5344C13.8749 31.5344 12.3136 30.3925 11.6929 28.7828C11.0375 27.0814 11.6559 25.0302 12.3984 23.0454C14.4032 17.6796 18.3742 12.9902 19.3771 11.9454C19.7644 11.5429 20.2083 11.5143 20.6227 11.9454C21.9799 13.359 28.7734 21.4459 28.7734 28.8529C28.7734 32.4115 26.6669 35.4739 23.6331 36.8701C23.2815 37.0319 23.3867 37.5643 23.7734 37.551C32.6447 37.2495 39.4206 35.9396 39.8704 34.8683C40.6701 33.8152 37.7186 25.796 32.3887 16.566Z" fill="url(#paint0_radial_298_897)"/>
<defs>
<radialGradient id="paint0_radial_298_897" cx="0" cy="0" r="1" gradientUnits="userSpaceOnUse" gradientTransform="translate(20.9655 22.4751) scale(22.7914 22.7914)">
<stop offset="0.0174" stop-color="#CE9F40"/>
<stop offset="1" stop-color="#0D5C46"/>
</radialGradient>
</defs>
</svg>
